<?xml version="1.0" encoding="UTF-8"?>
<!DOCTYPE svg PUBLIC "-//W3C//DTD SVG 1.1//EN" "http://www.w3.org/Graphics/SVG/1.1/DTD/svg11.dtd">
<svg xmlns="http://www.w3.org/2000/svg" xmlns:xlink="http://www.w3.org/1999/xlink" version="1.1" width="1131px" height="585px" viewBox="-0.5 -0.5 1131 585" style="background-color: rgb(255, 255, 255);"><defs><clipPath id="mx-clip-314-210-132-26-0"><rect x="314" y="210" width="132" height="26"/></clipPath><clipPath id="mx-clip-314-236-132-26-0"><rect x="314" y="236" width="132" height="26"/></clipPath><clipPath id="mx-clip-314-262-132-26-0"><rect x="314" y="262" width="132" height="26"/></clipPath><clipPath id="mx-clip-314-288-132-26-0"><rect x="314" y="288" width="132" height="26"/></clipPath><clipPath id="mx-clip-314-314-132-26-0"><rect x="314" y="314" width="132" height="26"/></clipPath><clipPath id="mx-clip-314-340-132-26-0"><rect x="314" y="340" width="132" height="26"/></clipPath><clipPath id="mx-clip-314-366-132-26-0"><rect x="314" y="366" width="132" height="26"/></clipPath><clipPath id="mx-clip-314-392-132-26-0"><rect x="314" y="392" width="132" height="26"/></clipPath><clipPath id="mx-clip-314-418-132-26-0"><rect x="314" y="418" width="132" height="26"/></clipPath><clipPath id="mx-clip-314-444-132-26-0"><rect x="314" y="444" width="132" height="26"/></clipPath><clipPath id="mx-clip-314-470-132-26-0"><rect x="314" y="470" width="132" height="26"/></clipPath><clipPath id="mx-clip-754-240-152-30-0"><rect x="754" y="240" width="152" height="30"/></clipPath><clipPath id="mx-clip-754-270-152-30-0"><rect x="754" y="270" width="152" height="30"/></clipPath><clipPath id="mx-clip-754-300-152-30-0"><rect x="754" y="300" width="152" height="30"/></clipPath><clipPath id="mx-clip-754-330-152-30-0"><rect x="754" y="330" width="152" height="30"/></clipPath><clipPath id="mx-clip-754-360-152-30-0"><rect x="754" y="360" width="152" height="30"/></clipPath><clipPath id="mx-clip-754-390-152-30-0"><rect x="754" y="390" width="152" height="30"/></clipPath><clipPath id="mx-clip-14-140-132-26-0"><rect x="14" y="140" width="132" height="26"/></clipPath><clipPath id="mx-clip-14-166-132-26-0"><rect x="14" y="166" width="132" height="26"/></clipPath><clipPath id="mx-clip-14-192-132-26-0"><rect x="14" y="192" width="132" height="26"/></clipPath><clipPath id="mx-clip-14-218-132-26-0"><rect x="14" y="218" width="132" height="26"/></clipPath><clipPath id="mx-clip-14-244-132-26-0"><rect x="14" y="244" width="132" height="26"/></clipPath><clipPath id="mx-clip-4-430-132-26-0"><rect x="4" y="430" width="132" height="26"/></clipPath><clipPath id="mx-clip-4-456-132-26-0"><rect x="4" y="456" width="132" height="26"/></clipPath><clipPath id="mx-clip-4-482-132-26-0"><rect x="4" y="482" width="132" height="26"/></clipPath><clipPath id="mx-clip-4-508-132-26-0"><rect x="4" y="508" width="132" height="26"/></clipPath><clipPath id="mx-clip-4-534-132-26-0"><rect x="4" y="534" width="132" height="26"/></clipPath><clipPath id="mx-clip-4-560-132-26-0"><rect x="4" y="560" width="132" height="26"/></clipPath><clipPath id="mx-clip-994-340-132-26-0"><rect x="994" y="340" width="132" height="26"/></clipPath><clipPath id="mx-clip-994-366-132-26-0"><rect x="994" y="366" width="132" height="26"/></clipPath><clipPath id="mx-clip-994-392-132-26-0"><rect x="994" y="392" width="132" height="26"/></clipPath><clipPath id="mx-clip-994-418-132-26-0"><rect x="994" y="418" width="132" height="26"/></clipPath><clipPath id="mx-clip-994-444-132-26-0"><rect x="994" y="444" width="132" height="26"/></clipPath><clipPath id="mx-clip-534-31-132-26-0"><rect x="534" y="31" width="132" height="26"/></clipPath><clipPath id="mx-clip-534-57-132-26-0"><rect x="534" y="57" width="132" height="26"/></clipPath><clipPath id="mx-clip-534-83-132-26-0"><rect x="534" y="83" width="132" height="26"/></clipPath><clipPath id="mx-clip-534-109-132-26-0"><rect x="534" y="109" width="132" height="26"/></clipPath><clipPath id="mx-clip-534-135-132-26-0"><rect x="534" y="135" width="132" height="26"/></clipPath><clipPath id="mx-clip-534-161-132-26-0"><rect x="534" y="161" width="132" height="26"/></clipPath><clipPath id="mx-clip-534-187-132-26-0"><rect x="534" y="187" width="132" height="26"/></clipPath><clipPath id="mx-clip-534-213-132-26-0"><rect x="534" y="213" width="132" height="26"/></clipPath></defs><g><path d="M 310 205 L 310 179 L 450 179 L 450 205" fill="#dae8fc" stroke="#6c8ebf" stroke-miterlimit="10" pointer-events="all"/><path d="M 310 205 L 310 491 L 450 491 L 450 205" fill="none" stroke="#6c8ebf" stroke-miterlimit="10" pointer-events="none"/><path d="M 310 205 L 450 205" fill="none" stroke="#6c8ebf" stroke-miterlimit="10" pointer-events="none"/><g fill="#000000" font-family="Montserrat" text-anchor="middle" font-size="11.999999999999998px"><text x="379.5" y="196.5">Room</text></g><rect x="310" y="205" width="140" height="26" fill="#dae8fc" stroke="#6c8ebf" pointer-events="all"/><g fill="#000000" font-family="Montserrat" clip-path="url(#mx-clip-314-210-132-26-0)" font-size="11.999999999999998px"><text x="315.5" y="222.5">Id</text></g><rect x="310" y="231" width="140" height="26" fill="#dae8fc" stroke="#6c8ebf" pointer-events="all"/><g fill="#000000" font-family="Montserrat" clip-path="url(#mx-clip-314-236-132-26-0)" font-size="11.999999999999998px"><text x="315.5" y="248.5">HomeType</text></g><rect x="310" y="257" width="140" height="26" fill="#dae8fc" stroke="#6c8ebf" pointer-events="all"/><g fill="#000000" font-family="Montserrat" clip-path="url(#mx-clip-314-262-132-26-0)" font-size="11.999999999999998px"><text x="315.5" y="274.5">TotalOccupancy</text></g><rect x="310" y="283" width="140" height="26" fill="#dae8fc" stroke="#6c8ebf" pointer-events="all"/><g fill="#000000" font-family="Montserrat" clip-path="url(#mx-clip-314-288-132-26-0)" font-size="11.999999999999998px"><text x="315.5" y="300.5">TotalBedrooms</text></g><rect x="310" y="309" width="140" height="26" fill="#dae8fc" stroke="#6c8ebf" pointer-events="all"/><g fill="#000000" font-family="Montserrat" clip-path="url(#mx-clip-314-314-132-26-0)" font-size="11.999999999999998px"><text x="315.5" y="326.5">TotalBathrooms</text></g><rect x="310" y="335" width="140" height="26" fill="#dae8fc" stroke="#6c8ebf" pointer-events="all"/><g fill="#000000" font-family="Montserrat" clip-path="url(#mx-clip-314-340-132-26-0)" font-size="11.999999999999998px"><text x="315.5" y="352.5">Summary</text></g><rect x="310" y="361" width="140" height="26" fill="#dae8fc" stroke="#6c8ebf" pointer-events="all"/><g fill="#000000" font-family="Montserrat" clip-path="url(#mx-clip-314-366-132-26-0)" font-size="11.999999999999998px"><text x="315.5" y="378.5">AddressId</text></g><rect x="310" y="387" width="140" height="26" fill="#dae8fc" stroke="#6c8ebf" pointer-events="all"/><g fill="#000000" font-family="Montserrat" clip-path="url(#mx-clip-314-392-132-26-0)" font-size="11.999999999999998px"><text x="315.5" y="404.5">AmenitiesId</text></g><rect x="310" y="413" width="140" height="26" fill="#dae8fc" stroke="#6c8ebf" pointer-events="all"/><g fill="#000000" font-family="Montserrat" clip-path="url(#mx-clip-314-418-132-26-0)" font-size="11.999999999999998px"><text x="315.5" y="430.5">Price</text></g><rect x="310" y="439" width="140" height="26" fill="#dae8fc" stroke="#6c8ebf" pointer-events="all"/><g fill="#000000" font-family="Montserrat" clip-path="url(#mx-clip-314-444-132-26-0)" font-size="11.999999999999998px"><text x="315.5" y="456.5">PublishedAt</text></g><rect x="310" y="465" width="140" height="26" fill="#dae8fc" stroke="#6c8ebf" pointer-events="all"/><g fill="#000000" font-family="Montserrat" clip-path="url(#mx-clip-314-470-132-26-0)" font-size="11.999999999999998px"><text x="315.5" y="482.5">UserId</text></g><path d="M 750 235 L 750 209 L 910 209 L 910 235" fill="#dae8fc" stroke="#6c8ebf" stroke-miterlimit="10" pointer-events="all"/><path d="M 750 235 L 750 415 L 910 415 L 910 235" fill="none" stroke="#6c8ebf" stroke-miterlimit="10" pointer-events="none"/><path d="M 750 235 L 910 235" fill="none" stroke="#6c8ebf" stroke-miterlimit="10" pointer-events="none"/><g fill="#000000" font-family="Montserrat" text-anchor="middle" font-size="13.999999999999998px"><text x="829.5" y="227.5">User</text></g><rect x="750" y="235" width="160" height="30" fill="#dae8fc" stroke="#6c8ebf" pointer-events="all"/><g fill="#000000" font-family="Montserrat" clip-path="url(#mx-clip-754-240-152-30-0)" font-size="11.999999999999998px"><text x="755.5" y="252.5">Id</text></g><rect x="750" y="265" width="160" height="30" fill="#dae8fc" stroke="#6c8ebf" pointer-events="all"/><g fill="#000000" font-family="Montserrat" clip-path="url(#mx-clip-754-270-152-30-0)" font-size="11.999999999999998px"><text x="755.5" y="282.5">FirstName</text></g><rect x="750" y="295" width="160" height="30" fill="#dae8fc" stroke="#6c8ebf" pointer-events="all"/><g fill="#000000" font-family="Montserrat" clip-path="url(#mx-clip-754-300-152-30-0)" font-size="11.999999999999998px"><text x="755.5" y="312.5">LastName</text></g><rect x="750" y="325" width="160" height="30" fill="#dae8fc" stroke="#6c8ebf" pointer-events="all"/><g fill="#000000" font-family="Montserrat" clip-path="url(#mx-clip-754-330-152-30-0)" font-size="11.999999999999998px"><text x="755.5" y="342.5">Email</text></g><rect x="750" y="355" width="160" height="30" fill="#dae8fc" stroke="#6c8ebf" pointer-events="all"/><g fill="#000000" font-family="Montserrat" clip-path="url(#mx-clip-754-360-152-30-0)" font-size="11.999999999999998px"><text x="755.5" y="372.5">Password</text></g><rect x="750" y="385" width="160" height="30" fill="#dae8fc" stroke="#6c8ebf" pointer-events="all"/><g fill="#000000" font-family="Montserrat" clip-path="url(#mx-clip-754-390-152-30-0)" font-size="11.999999999999998px"><text x="755.5" y="402.5">RepeatedPassword</text></g><path d="M 10 135 L 10 109 L 150 109 L 150 135" fill="#dae8fc" stroke="#6c8ebf" stroke-miterlimit="10" pointer-events="all"/><path d="M 10 135 L 10 265 L 150 265 L 150 135" fill="none" stroke="#6c8ebf" stroke-miterlimit="10" pointer-events="none"/><path d="M 10 135 L 150 135" fill="none" stroke="#6c8ebf" stroke-miterlimit="10" pointer-events="none"/><g fill="#000000" font-family="Montserrat" text-anchor="middle" font-size="11.999999999999998px"><text x="79.5" y="126.5">Address</text></g><rect x="10" y="135" width="140" height="26" fill="#dae8fc" stroke="#6c8ebf" pointer-events="all"/><g fill="#000000" font-family="Montserrat" clip-path="url(#mx-clip-14-140-132-26-0)" font-size="11.999999999999998px"><text x="15.5" y="152.5">Id</text></g><rect x="10" y="161" width="140" height="26" fill="#dae8fc" stroke="#6c8ebf" pointer-events="all"/><g fill="#000000" font-family="Montserrat" clip-path="url(#mx-clip-14-166-132-26-0)" font-size="11.999999999999998px"><text x="15.5" y="178.5">ZIPCode</text></g><rect x="10" y="187" width="140" height="26" fill="#dae8fc" stroke="#6c8ebf" pointer-events="all"/><g fill="#000000" font-family="Montserrat" clip-path="url(#mx-clip-14-192-132-26-0)" font-size="11.999999999999998px"><text x="15.5" y="204.5">City</text></g><rect x="10" y="213" width="140" height="26" fill="#dae8fc" stroke="#6c8ebf" pointer-events="all"/><g fill="#000000" font-family="Montserrat" clip-path="url(#mx-clip-14-218-132-26-0)" font-size="11.999999999999998px"><text x="15.5" y="230.5">Street</text></g><rect x="10" y="239" width="140" height="26" fill="#dae8fc" stroke="#6c8ebf" pointer-events="all"/><g fill="#000000" font-family="Montserrat" clip-path="url(#mx-clip-14-244-132-26-0)" font-size="11.999999999999998px"><text x="15.5" y="256.5">ApartmentNumber</text></g><path d="M 307.06 372.49 L 277.06 372.49 L 180 148 L 150 148" fill="none" stroke="#6c8ebf" stroke-miterlimit="10" pointer-events="stroke"/><path d="M 303.06 376.49 L 303.06 368.49 M 299.06 376.49 L 299.06 368.49" fill="none" stroke="#6c8ebf" stroke-miterlimit="10" pointer-events="all"/><path d="M 154 144 L 154 152 M 158 144 L 158 152" fill="none" stroke="#6c8ebf" stroke-miterlimit="10" pointer-events="all"/><path d="M 0 425 L 0 399 L 140 399 L 140 425" fill="#dae8fc" stroke="#6c8ebf" stroke-miterlimit="10" pointer-events="all"/><path d="M 0 425 L 0 581 L 140 581 L 140 425" fill="none" stroke="#6c8ebf" stroke-miterlimit="10" pointer-events="none"/><path d="M 0 425 L 140 425" fill="none" stroke="#6c8ebf" stroke-miterlimit="10" pointer-events="none"/><g fill="#000000" font-family="Montserrat" text-anchor="middle" font-size="11.999999999999998px"><text x="69.5" y="416.5">Amenities</text></g><rect x="0" y="425" width="140" height="26" fill="#dae8fc" stroke="#6c8ebf" pointer-events="all"/><g fill="#000000" font-family="Montserrat" clip-path="url(#mx-clip-4-430-132-26-0)" font-size="11.999999999999998px"><text x="5.5" y="442.5">Id</text></g><rect x="0" y="451" width="140" height="26" fill="#dae8fc" stroke="#6c8ebf" pointer-events="all"/><g fill="#000000" font-family="Montserrat" clip-path="url(#mx-clip-4-456-132-26-0)" font-size="11.999999999999998px"><text x="5.5" y="468.5">HasTV</text></g><rect x="0" y="477" width="140" height="26" fill="#dae8fc" stroke="#6c8ebf" pointer-events="all"/><g fill="#000000" font-family="Montserrat" clip-path="url(#mx-clip-4-482-132-26-0)" font-size="11.999999999999998px"><text x="5.5" y="494.5">HasKitchen</text></g><rect x="0" y="503" width="140" height="26" fill="#dae8fc" stroke="#6c8ebf" pointer-events="all"/><g fill="#000000" font-family="Montserrat" clip-path="url(#mx-clip-4-508-132-26-0)" font-size="11.999999999999998px"><text x="5.5" y="520.5">HasHeating</text></g><rect x="0" y="529" width="140" height="26" fill="#dae8fc" stroke="#6c8ebf" pointer-events="all"/><g fill="#000000" font-family="Montserrat" clip-path="url(#mx-clip-4-534-132-26-0)" font-size="11.999999999999998px"><text x="5.5" y="546.5">HasInternet</text></g><rect x="0" y="555" width="140" height="26" fill="#dae8fc" stroke="#6c8ebf" pointer-events="all"/><g fill="#000000" font-family="Montserrat" clip-path="url(#mx-clip-4-560-132-26-0)" font-size="11.999999999999998px"><text x="5.5" y="572.5">HasAirCon</text></g><path d="M 310 400 L 280 400 L 170 438 L 140 438" fill="none" stroke="#6c8ebf" stroke-miterlimit="10" pointer-events="stroke"/><path d="M 306 404 L 306 396 M 302 404 L 302 396" fill="none" stroke="#6c8ebf" stroke-miterlimit="10" pointer-events="all"/><path d="M 144 434 L 144 442 M 148 434 L 148 442" fill="none" stroke="#6c8ebf" stroke-miterlimit="10" pointer-events="all"/><path d="M 750 250 L 720 250 L 478.6 474.07 L 448.6 474.07" fill="none" stroke="#6c8ebf" stroke-miterlimit="10" pointer-events="stroke"/><path d="M 456.6 470.07 L 456.6 478.07 M 448.6 478.07 L 456.6 474.07 L 448.6 470.07" fill="none" stroke="#6c8ebf" stroke-miterlimit="10" pointer-events="all"/><path d="M 990 335 L 990 309 L 1130 309 L 1130 335" fill="#dae8fc" stroke="#6c8ebf" stroke-miterlimit="10" pointer-events="all"/><path d="M 990 335 L 990 465 L 1130 465 L 1130 335" fill="none" stroke="#6c8ebf" stroke-miterlimit="10" pointer-events="none"/><path d="M 990 335 L 1130 335" fill="none" stroke="#6c8ebf" stroke-miterlimit="10" pointer-events="none"/><g fill="#000000" font-family="Montserrat" text-anchor="middle" font-size="11.999999999999998px"><text x="1059.5" y="326.5">Comments</text></g><rect x="990" y="335" width="140" height="26" fill="#dae8fc" stroke="#6c8ebf" pointer-events="all"/><g fill="#000000" font-family="Montserrat" clip-path="url(#mx-clip-994-340-132-26-0)" font-size="11.999999999999998px"><text x="995.5" y="352.5">Id</text></g><rect x="990" y="361" width="140" height="26" fill="#dae8fc" stroke="#6c8ebf" pointer-events="all"/><g fill="#000000" font-family="Montserrat" clip-path="url(#mx-clip-994-366-132-26-0)" font-size="11.999999999999998px"><text x="995.5" y="378.5">UserFirstName</text></g><rect x="990" y="387" width="140" height="26" fill="#dae8fc" stroke="#6c8ebf" pointer-events="all"/><g fill="#000000" font-family="Montserrat" clip-path="url(#mx-clip-994-392-132-26-0)" font-size="11.999999999999998px"><text x="995.5" y="404.5">NumberOfStars</text></g><rect x="990" y="413" width="140" height="26" fill="#dae8fc" stroke="#6c8ebf" pointer-events="all"/><g fill="#000000" font-family="Montserrat" clip-path="url(#mx-clip-994-418-132-26-0)" font-size="11.999999999999998px"><text x="995.5" y="430.5">CreatedAt</text></g><rect x="990" y="439" width="140" height="26" fill="#dae8fc" stroke="#6c8ebf" pointer-events="all"/><g fill="#000000" font-family="Montserrat" clip-path="url(#mx-clip-994-444-132-26-0)" font-size="11.999999999999998px"><text x="995.5" y="456.5">UserId</text></g><path d="M 913.2 245.56 L 943.2 245.56 L 960 449.01 L 990 449.01" fill="none" stroke="#6c8ebf" stroke-miterlimit="10" pointer-events="stroke"/><path d="M 982 453.01 L 982 445.01 M 990 445.01 L 982 449.01 L 990 453.01" fill="none" stroke="#6c8ebf" stroke-miterlimit="10" pointer-events="all"/><path d="M 530 26 L 530 0 L 670 0 L 670 26" fill="#dae8fc" stroke="#6c8ebf" stroke-miterlimit="10" pointer-events="all"/><path d="M 530 26 L 530 234 L 670 234 L 670 26" fill="none" stroke="#6c8ebf" stroke-miterlimit="10" pointer-events="none"/><path d="M 530 26 L 670 26" fill="none" stroke="#6c8ebf" stroke-miterlimit="10" pointer-events="none"/><g fill="#000000" font-family="Montserrat" text-anchor="middle" font-size="11.999999999999998px"><text x="599.5" y="17.5">Reservation</text></g><rect x="530" y="26" width="140" height="26" fill="#dae8fc" stroke="#6c8ebf" pointer-events="all"/><g fill="#000000" font-family="Montserrat" clip-path="url(#mx-clip-534-31-132-26-0)" font-size="11.999999999999998px"><text x="535.5" y="43.5">Id</text></g><rect x="530" y="52" width="140" height="26" fill="#dae8fc" stroke="#6c8ebf" pointer-events="all"/><g fill="#000000" font-family="Montserrat" clip-path="url(#mx-clip-534-57-132-26-0)" font-size="11.999999999999998px"><text x="535.5" y="69.5">UserId</text></g><rect x="530" y="78" width="140" height="26" fill="#dae8fc" stroke="#6c8ebf" pointer-events="all"/><g fill="#000000" font-family="Montserrat" clip-path="url(#mx-clip-534-83-132-26-0)" font-size="11.999999999999998px"><text x="535.5" y="95.5">RoomId</text></g><rect x="530" y="104" width="140" height="26" fill="#dae8fc" stroke="#6c8ebf" pointer-events="all"/><g fill="#000000" font-family="Montserrat" clip-path="url(#mx-clip-534-109-132-26-0)" font-size="11.999999999999998px"><text x="535.5" y="121.5">StartDate</text></g><rect x="530" y="130" width="140" height="26" fill="#dae8fc" stroke="#6c8ebf" pointer-events="all"/><g fill="#000000" font-family="Montserrat" clip-path="url(#mx-clip-534-135-132-26-0)" font-size="11.999999999999998px"><text x="535.5" y="147.5">EndDate</text></g><rect x="530" y="156" width="140" height="26" fill="#dae8fc" stroke="#6c8ebf" pointer-events="all"/><g fill="#000000" font-family="Montserrat" clip-path="url(#mx-clip-534-161-132-26-0)" font-size="11.999999999999998px"><text x="535.5" y="173.5">FinalPrice</text></g><rect x="530" y="182" width="140" height="26" fill="#dae8fc" stroke="#6c8ebf" pointer-events="all"/><g fill="#000000" font-family="Montserrat" clip-path="url(#mx-clip-534-187-132-26-0)" font-size="11.999999999999998px"><text x="535.5" y="199.5">ReservedGuests</text></g><rect x="530" y="208" width="140" height="26" fill="#dae8fc" stroke="#6c8ebf" pointer-events="all"/><g fill="#000000" font-family="Montserrat" clip-path="url(#mx-clip-534-213-132-26-0)" font-size="11.999999999999998px"><text x="535.5" y="225.5">IsCancelled</text></g><path d="M 750 250 L 720 250 L 700 65 L 670 65" fill="none" stroke="#6c8ebf" stroke-miterlimit="10" pointer-events="stroke"/><path d="M 746 254 L 746 246 M 742 254 L 742 246" fill="none" stroke="#6c8ebf" stroke-miterlimit="10" pointer-events="all"/><path d="M 674 61 L 674 69 M 678 61 L 678 69" fill="none" stroke="#6c8ebf" stroke-miterlimit="10" pointer-events="all"/><path d="M 453.08 222.26 L 483.08 222.26 L 500 91 L 530 91" fill="none" stroke="#6c8ebf" stroke-miterlimit="10" pointer-events="stroke"/><path d="M 457.08 218.26 L 457.08 226.26 M 461.08 218.26 L 461.08 226.26" fill="none" stroke="#6c8ebf" stroke-miterlimit="10" pointer-events="all"/><path d="M 526 95 L 526 87 M 522 95 L 522 87" fill="none" stroke="#6c8ebf" stroke-miterlimit="10" pointer-events="all"/></g></svg>